<svg id="Layer_1" data-name="Layer 1" xmlns="http://www.w3.org/2000/svg" viewBox="0 0 411.29 196.01"><defs><style>.cls-1{fill:#606060;}</style></defs><title>logo</title><polygon class="cls-1" points="311.95 11.84 311.95 15.91 411.3 15.91 411.3 11.84 361.62 0 311.95 11.84"/><path class="cls-1" d="M406.29,31.53a14.64,14.64,0,0,1,5-11.2H388.79a14.64,14.64,0,0,1,5,11.2V137.88a14.64,14.64,0,0,1-5,11.19L376.66,161.2a48.29,48.29,0,0,0-30.22,0l-12-12.1a14.6,14.6,0,0,1-5-11.19V31.53a14.61,14.61,0,0,1,5-11.2H311.92a14.61,14.61,0,0,1,5,11.2V137.88a14.6,14.6,0,0,1-5,11.19l45.05,45A6.26,6.26,0,0,0,361.5,196h0a6.25,6.25,0,0,0,4.52-1.92l45.24-45a14.64,14.64,0,0,1-5-11.19Z" transform="translate(0.03)"/><path class="cls-1" d="M355.33,137.88a14.31,14.31,0,0,1-4,10.2,51.73,51.73,0,0,1,20.59,0,14.38,14.38,0,0,1-4.05-10.25V31.53a14.61,14.61,0,0,1,5-11.2H350.36a14.64,14.64,0,0,1,5,11.2Z" transform="translate(0.03)"/><path class="cls-1" d="M43.49,79.08a2.12,2.12,0,0,1,.26.88c0,.46-.4.69-1.18.69a12.21,12.21,0,0,1-2.25-.3l-1.51,33.2a17.18,17.18,0,0,1-4.05,10.91q-5.58,6.4-18,6.4a19.09,19.09,0,0,1-11.66-3.4A12.46,12.46,0,0,1,0,116.85,26.58,26.58,0,0,1,.85,111a23.82,23.82,0,0,1,1.86-5.49c.44-.81,1-1.21,1.54-1.21s.85.35.85,1a3,3,0,0,1-.13.75,15.36,15.36,0,0,0-.85,4.41q0,10.42,14.06,10.42a26.89,26.89,0,0,0,12.4-2.65c2.81-1.43,4.21-2.71,4.21-3.82a253.54,253.54,0,0,0-3.26-37.7l6-6.63a1.21,1.21,0,0,1,.85-.49c.34,0,.65.26.91.78Z" transform="translate(0.03)"/><path class="cls-1" d="M41.69,102a9.16,9.16,0,0,0,4.6.92q7.65,0,12.35-4.38L53.58,84.86l4.51-5c.33-.37.58-.56.75-.56s.4.24.56.72l5.35,16.2c1.33,4,3.21,6.08,5.62,6.08h1.41v10H69.29a7.36,7.36,0,0,1-6.4-3.79,40,40,0,0,1-3-6.79,26,26,0,0,1-4.77,6.7,15.7,15.7,0,0,1-11.08,4.11,11.24,11.24,0,0,1-2.38-.23Z" transform="translate(0.03)"/><path class="cls-1" d="M98.11,104.2q-3,7.51-4.51,7.52-7.77,0-11.3-1.93a10.71,10.71,0,0,1-7.58,2.55H70v-10h4.15A4.13,4.13,0,0,1,72.63,99c0-2.29,1.05-4.94,3.17-8q4.67-6.67,10-6.68,6.79,0,10.36,6.6a5.32,5.32,0,0,1,.78,2.36c0,.87-.49,1.3-1.47,1.3a6.92,6.92,0,0,1-2.19-.49A27.44,27.44,0,0,0,84.36,93c-4.58,0-6.86,1.17-6.86,3.52q0,4.19,10.09,5.36a38.83,38.83,0,0,0,9.25.07,5.75,5.75,0,0,1,.78-.07c.63,0,.95.23.95.69A5.33,5.33,0,0,1,98.11,104.2Z" transform="translate(0.03)"/><path class="cls-1" d="M147.38,91.3c0,.85-.37,1.27-1.11,1.27.48,0,.73,0,.75-.13s-1.07-.53-3.2-1.08a33.27,33.27,0,0,0-6.73-1.17q-5.49,0-8.63,3.1-2.19,2.16-2.19,3.95,0,1.28,4.8,2.06L137,100a18.63,18.63,0,0,1,5.52,1.43,5.66,5.66,0,0,1,3.1,5.43q0,6.83-2.06,9.86-6.08,9-25.48,9-8.07,0-13.17-2.94a12,12,0,0,1-6.34-11.14,36.67,36.67,0,0,1,1.51-8.73q1.83-6.85,4-6.86c.56,0,.85.4.85,1.21a4.26,4.26,0,0,1-.26,1.34,21.68,21.68,0,0,0-1.15,7.09q0,6.38,7,8.89,5.07,1.83,14.61,1.83a54.84,54.84,0,0,0,11.76-1.12q5.91-1.3,5.91-3.72,0-1.24-4-1.8l-8.33-1.07q-5.13-.69-6.79-1.74c-1.5-1-2.26-2.74-2.26-5.35q0-2.16,2-6.57a30.25,30.25,0,0,1,5.65-8.56q4.13-4.25,8.59-4.25a9.18,9.18,0,0,1,7,3.56C146.48,87.79,147.38,89.64,147.38,91.3Z" transform="translate(0.03)"/><path class="cls-1" d="M153.71,71.73l-3.13,38c-.15,1.88-.65,2.81-1.5,2.81s-1.45-1.18-1.74-3.56l-3.72-31.79,8.82-6.4a1.81,1.81,0,0,1,.92-.42C153.66,70.36,153.78,70.81,153.71,71.73Z" transform="translate(0.03)"/><path class="cls-1" d="M152.77,102a9.16,9.16,0,0,0,4.6.92q7.65,0,12.35-4.38l-5.06-13.66,4.51-5c.33-.37.58-.56.75-.56s.4.24.56.72l5.35,16.2q2,6.08,5.62,6.08h1.41v10h-2.49a7.36,7.36,0,0,1-6.4-3.79,40,40,0,0,1-3-6.79,26,26,0,0,1-4.77,6.7,15.7,15.7,0,0,1-11.08,4.11,11.24,11.24,0,0,1-2.38-.23Z" transform="translate(0.03)"/><path class="cls-1" d="M186.71,79.18a.54.54,0,0,1,0,.88l-4.05,4a.57.57,0,0,1-.88,0l-4.15-4c-.33-.3-.3-.65.1-1l3.78-3.86a.66.66,0,0,1,1.05,0Zm7.58,18.95a17.63,17.63,0,0,1-2.35,9.08,9.3,9.3,0,0,1-8.46,5.09h-2.42v-10h2q6.47,0,6.46-1.89,0-1.68-5.81-7l4.67-7.19a.56.56,0,0,1,.92-.16,13.14,13.14,0,0,1,4,6.44A18.44,18.44,0,0,1,194.29,98.13Z" transform="translate(0.03)"/><path class="cls-1" d="M243.2,91.3c0,.85-.37,1.27-1.11,1.27.48,0,.73,0,.75-.13s-1.07-.53-3.2-1.08a33.27,33.27,0,0,0-6.73-1.17q-5.49,0-8.63,3.1-2.19,2.16-2.19,3.95c0,.85,1.61,1.54,4.81,2.06q2.94.33,5.88.69a18.54,18.54,0,0,1,5.52,1.43,5.66,5.66,0,0,1,3.1,5.43c0,4.55-.68,7.84-2.06,9.86q-6.08,9-25.48,9-8.07,0-13.16-2.94a12,12,0,0,1-6.34-11.14,36.55,36.55,0,0,1,1.5-8.73q1.83-6.85,4-6.86c.57,0,.85.4.85,1.21a4.26,4.26,0,0,1-.26,1.34,22,22,0,0,0-1.14,7.09q0,6.38,6.95,8.89,5.07,1.83,14.61,1.83a54.71,54.71,0,0,0,11.76-1.12q5.91-1.3,5.91-3.72c0-.83-1.33-1.43-4-1.8l-8.33-1.07q-5.13-.69-6.8-1.74c-1.5-1-2.25-2.74-2.25-5.35q0-2.16,2-6.57a30.47,30.47,0,0,1,5.65-8.56q4.13-4.25,8.6-4.25a9.18,9.18,0,0,1,7,3.56Q243.21,88.82,243.2,91.3Z" transform="translate(0.03)"/><path class="cls-1" d="M255.81,102.8a27.4,27.4,0,0,1-7.35,19.31,7.93,7.93,0,0,1-1.73,1.53,5.13,5.13,0,0,1-2.13.36,52.6,52.6,0,0,1-7.41-.39q-6.18-.69-6.18-2.06c0-.76.89-1.49,2.65-2.19a69.14,69.14,0,0,0,9-4.21q9.59-5.49,9.58-9.44,0-3.34-8.86-9.74l4.74-7.19c.31-.48.62-.72,1-.72a2.31,2.31,0,0,1,1.27.72,15.46,15.46,0,0,1,3.53,5.13A21.07,21.07,0,0,1,255.81,102.8Z" transform="translate(0.03)"/><path class="cls-1" d="M275.25,101.39a41.24,41.24,0,0,1-2.58,14.83,29.59,29.59,0,0,1-5,8.76c-1.64,1.92-2.81,2.88-3.53,2.88a80.76,80.76,0,0,1-12.06-1.38q-2.28-.39-2.28-1.92c0-.55.58-1,1.76-1.44,2.22-.79,3.67-1.34,4.35-1.67q13.55-6.66,15.55-14c-1.57.13-3,.2-4.38.2q-11.87,0-11.86-6.14,0-3.17,2.22-9.41,3-8.56,7.42-8.56,5.35,0,8.23,6.66A28.21,28.21,0,0,1,275.25,101.39Zm-8.36-3.66q-6.74,0-6.73-2,0-3.13,3.33-3.14a5.7,5.7,0,0,1,3,1,7.14,7.14,0,0,1,3,4A23.24,23.24,0,0,1,266.89,97.73Z" transform="translate(0.03)"/><path class="cls-1" d="M283.55,71.73l-3.14,38c-.15,1.88-.65,2.81-1.5,2.81s-1.45-1.18-1.73-3.56l-3.73-31.79,8.82-6.4a1.85,1.85,0,0,1,.92-.42C283.49,70.36,283.61,70.81,283.55,71.73Z" transform="translate(0.03)"/><path class="cls-1" d="M288.81,79.08h.59q4,.65,11.3,9.54,3.63,4.83,3.63,8.75,0,10.65-5.13,13.33a13.1,13.1,0,0,1-6.57,1.67H284.1c-.85,0-1.27-.09-1.27-.26V101.62h.1a16.23,16.23,0,0,0,5.19.75h3q9.34,0,9.93-2.35v-.1q-.19-2.58-11-9.41a9.05,9.05,0,0,0-2.65-.94H287l-2,.55c-.61,0-1-.4-1.08-1.21s1.21-3.78,3.63-9.24A1.59,1.59,0,0,1,288.81,79.08Z" transform="translate(0.03)"/></svg>