<svg id="Layer_1" data-name="Layer 1" xmlns="http://www.w3.org/2000/svg" viewBox="0 0 111.54 119.68"><defs><style>.cls-1{fill:#010101;}</style></defs><title>profile</title><path class="cls-1" d="M76.1,34c-1.16,5.82-2,12.25-4.24,16.64-3.22,6.26-10.26,10.11-16,10.11-6.08,0-12.82-4.15-16-11.09C38,45.44,36.57,35.11,36,29.73,34.53,14.32,40.54,8.82,55.87,8.5,72.87,8.13,79,19.26,76.1,34Z"/><path class="cls-1" d="M37.27,27.86c-2.39-1.31-4.56-1.09-4.13,1.74S34.23,40,35.75,41.34s3,1.74,3.92.22S37.27,27.86,37.27,27.86Z"/><path class="cls-1" d="M75,27.86c2.39-1.31,4.57-1.09,4.13,1.74S78.05,40,76.52,41.34s-3,1.74-3.91.22S75,27.86,75,27.86Z"/><path class="cls-1" d="M65.75,7.24c-.82-3.28.41-4.73-6-6.27-6.82-1.64-12-1.64-18.54,3.54-5.15,4.08-7.36,7.91-7.09,15.27a59.3,59.3,0,0,0,1.09,10.63l4.37,2.45s.54-13.63,2.18-16.35,12-1.91,16.63-3S65.75,7.24,65.75,7.24Z"/><path class="cls-1" d="M63.29,7.51c1.64,3.82,7.09,7.91,9,11.18S73.38,34,73.38,34l3.55-3s3.54-12.26,0-19.9S67.66.69,64.11,2.6,63.29,7.51,63.29,7.51Z"/><path class="cls-1" d="M103.68,73.59a3.46,3.46,0,0,0-2.62-1.33L75.28,62l-6-3.56A36.18,36.18,0,0,1,69.69,49c1.37-6.22-27.63-.66-27.63-.66a75.6,75.6,0,0,1,.3,10.28L36.6,62l-25.78,11a3.42,3.42,0,0,0-2.61,1.34C7.27,75.61,1.12,95,0,119.66H111.54C110.42,95,104.61,74.93,103.68,73.59ZM73.17,81.13l-2-1.26c-.86,3.75-2.1,7.78-3.34,12.29-3.37,12.32-8.19,24.44-9.11,25.59h-4.1c-.92-1.15-5.7-12.58-9.08-24.9-1.28-4.69-2.53-8.84-3.54-12.94l-2.14,1.22L38.2,62.37l4.18-2.61L54.74,72.62l-.56.32a4.5,4.5,0,0,0,2.1.8,7.27,7.27,0,0,0,3.12-1.56l-.91-.58L69.7,59.76,74,62.2Z"/><path class="cls-1" d="M57.8,70.33H55.27L51.91,73.7S54,74.37,54.37,79c1.31.09,1.74.1,2.17.09s.86,0,2.17-.09c.4-4.64,2.82-5.42,2.82-5.42Z"/><path class="cls-1" d="M58.53,78.41,57,77.71v-.32l-.43.16-.43-.16v.32l-1.57.7c-2,1.79-1.93,8.6-1.93,10.4v30.87h7.85V88.81C60.46,87,60.5,80.2,58.53,78.41Z"/><polygon class="cls-1" points="57.8 70.33 71.29 79.86 58.1 71.58 57.8 70.33"/><polygon class="cls-1" points="55.27 70.33 42.55 79.51 55.26 71.58 55.27 70.33"/></svg>